<svg xmlns="http://www.w3.org/2000/svg" width="16" height="16" id="grid"><g fill-rule="evenodd" color="#000" font-family="sans-serif" font-weight="400"><path style="line-height:normal;text-indent:0;text-align:start;text-decoration-line:none;text-decoration-style:solid;text-decoration-color:#000;text-transform:none;block-progression:tb;isolation:auto;mix-blend-mode:normal" fill="#c2e4f8" d="M1.998 2H4v2H1.998ZM7 2h2v2H7Zm5 0h2v2h-2zM1.998 6.998H4V9H1.998Zm5.002 0h2V9H7Zm5 0h2V9h-2ZM1.998 12H4v2H1.998ZM7 12h2v2H7zm5 0h2v2h-2z" overflow="visible" transform="translate(0 .002)"></path><path style="line-height:normal;text-indent:0;text-align:start;text-decoration-line:none;text-decoration-style:solid;text-decoration-color:#000;text-transform:none;block-progression:tb;isolation:auto;mix-blend-mode:normal" fill="#249fe6" d="M1.5 1a.5.5 0 0 0-.5.5v3a.5.5 0 0 0 .5.5h3a.5.5 0 0 0 .5-.5v-3a.5.5 0 0 0-.5-.5h-3zm5 0a.5.5 0 0 0-.5.5v3a.5.5 0 0 0 .5.5h3a.5.5 0 0 0 .5-.5v-3a.5.5 0 0 0-.5-.5h-3zm5 0a.5.5 0 0 0-.502.5v3a.5.5 0 0 0 .502.5h3a.5.5 0 0 0 .5-.5v-3a.5.5 0 0 0-.5-.5h-3zM1.998 2H4v2H1.998V2zM7 2h2v2H7V2zm5 0h2v2h-2V2zM1.5 6a.5.5 0 0 0-.5.5v3a.5.5 0 0 0 .5.5h3a.5.5 0 0 0 .5-.5v-3a.5.5 0 0 0-.5-.5h-3zm5 0a.5.5 0 0 0-.5.5v3a.5.5 0 0 0 .5.5h3a.5.5 0 0 0 .5-.5v-3a.5.5 0 0 0-.5-.5h-3zm5 0a.5.5 0 0 0-.502.5v3a.5.5 0 0 0 .502.5h3a.5.5 0 0 0 .5-.5v-3a.5.5 0 0 0-.5-.5h-3zm-9.502.998H4V9H1.998V6.998zm5.002 0h2V9H7V6.998zm5 0h2V9h-2V6.998zM1.5 11a.5.5 0 0 0-.5.5v3a.5.5 0 0 0 .5.5h3a.5.5 0 0 0 .5-.5v-3a.5.5 0 0 0-.5-.5h-3zm5 0a.5.5 0 0 0-.5.5v3a.5.5 0 0 0 .5.5h3a.5.5 0 0 0 .5-.5v-3a.5.5 0 0 0-.5-.5h-3zm5 0a.5.5 0 0 0-.502.5v3a.5.5 0 0 0 .502.5h3a.5.5 0 0 0 .5-.5v-3a.5.5 0 0 0-.5-.5h-3zm-9.502 1H4v2H1.998v-2zM7 12h2v2H7v-2zm5 0h2v2h-2v-2z" overflow="visible" transform="translate(0 .002)"></path></g></svg>